<svg width="23" height="16" viewBox="0 0 23 16" fill="none" xmlns="http://www.w3.org/2000/svg">
<path d="M22.0737 5.28333C22.2451 5.15417 22.5 5.275 22.5 5.47917V14C22.5 15.1042 21.5552 16 20.3906 16H2.10938C0.944824 16 0 15.1042 0 14V5.48333C0 5.275 0.250488 5.15833 0.42627 5.2875C1.41064 6.0125 2.71582 6.93333 7.19824 10.0208C8.12549 10.6625 9.68994 12.0125 11.25 12.0042C12.8188 12.0167 14.4141 10.6375 15.3062 10.0208C19.7886 6.93333 21.0894 6.00833 22.0737 5.28333ZM11.25 10.6667C12.2695 10.6833 13.7373 9.45 14.4756 8.94167C20.3071 4.92917 20.751 4.57917 22.0957 3.57917C22.3506 3.39167 22.5 3.1 22.5 2.79167V2C22.5 0.895833 21.5552 0 20.3906 0H2.10938C0.944824 0 0 0.895833 0 2V2.79167C0 3.1 0.149414 3.3875 0.404297 3.57917C1.74902 4.575 2.19287 4.92917 8.02441 8.94167C8.7627 9.45 10.2305 10.6833 11.25 10.6667Z" fill="#FFB800"/>
</svg>
