<svg width="100" height="82" viewBox="0 0 100 82" fill="none" xmlns="http://www.w3.org/2000/svg">
<path d="M27.7769 0.665724C27.5626 0.454712 27.3079 0.287286 27.0275 0.173046C26.7471 0.0588061 26.4464 0 26.1428 0C25.8392 0 25.5385 0.0588061 25.2581 0.173046C24.9777 0.287286 24.723 0.454712 24.5087 0.665724L12.2665 12.6072L7.90248 8.43494C7.68816 8.22393 7.43348 8.0565 7.15307 7.94226C6.87266 7.82802 6.57201 7.76922 6.26839 7.76922C5.96476 7.76922 5.66412 7.82802 5.3837 7.94226C5.10329 8.0565 4.84862 8.22393 4.63429 8.43494L1.61603 11.4C1.40096 11.6103 1.23031 11.8602 1.11387 12.1353C0.997437 12.4104 0.9375 12.7054 0.9375 13.0033C0.9375 13.3012 0.997437 13.5962 1.11387 13.8713C1.23031 14.1464 1.40096 14.3963 1.61603 14.6066L10.765 23.5471C11.2217 23.973 11.8277 24.2105 12.4578 24.2105C13.0878 24.2105 13.6938 23.973 14.1505 23.5471L17.1476 20.6009L31.0278 6.98446C31.4603 6.55981 31.7046 5.98498 31.7079 5.38469C31.7111 4.78439 31.473 4.20705 31.0451 3.77794L27.7769 0.665724ZM27.7769 30.692C27.5626 30.481 27.3079 30.3135 27.0275 30.1993C26.7471 30.0851 26.4464 30.0263 26.1428 30.0263C25.8392 30.0263 25.5385 30.0851 25.2581 30.1993C24.9777 30.3135 24.723 30.481 24.5087 30.692L12.2665 42.7108L7.90248 38.5423C7.68816 38.3313 7.43348 38.1639 7.15307 38.0496C6.87266 37.9354 6.57201 37.8766 6.26839 37.8766C5.96476 37.8766 5.66412 37.9354 5.3837 38.0496C5.10329 38.1639 4.84862 38.3313 4.63429 38.5423L1.61603 41.5017C1.40096 41.712 1.23031 41.9619 1.11387 42.237C0.997437 42.5121 0.9375 42.8071 0.9375 43.105C0.9375 43.4029 0.997437 43.6979 1.11387 43.973C1.23031 44.2481 1.40096 44.498 1.61603 44.7083L10.742 53.6677C11.1983 54.0934 11.804 54.3309 12.4337 54.3309C13.0635 54.3309 13.6691 54.0934 14.1255 53.6677L17.1438 50.7082L31.0239 37.0862C31.4548 36.6645 31.6983 36.0929 31.7015 35.4958C31.7048 34.8988 31.4675 34.3247 31.0412 33.8985L27.7769 30.692ZM13.2412 63.3815C8.14856 63.3815 3.89991 67.4369 3.89991 72.4353C3.89991 77.4337 8.1524 81.489 13.2412 81.489C15.6885 81.489 18.0357 80.5351 19.7662 78.8372C21.4968 77.1393 22.469 74.8364 22.469 72.4353C22.469 70.0341 21.4968 67.7312 19.7662 66.0333C18.0357 64.3354 15.6885 63.3815 13.2412 63.3815ZM96.2916 66.3995H40.9246C40.1088 66.3995 39.3265 66.7174 38.7496 67.2834C38.1728 67.8493 37.8487 68.617 37.8487 69.4174V75.4532C37.8487 76.2536 38.1728 77.0212 38.7496 77.5871C39.3265 78.1531 40.1088 78.4711 40.9246 78.4711H96.2916C97.1074 78.4711 97.8897 78.1531 98.4666 77.5871C99.0434 77.0212 99.3675 76.2536 99.3675 75.4532V69.4174C99.3675 68.617 99.0434 67.8493 98.4666 67.2834C97.8897 66.7174 97.1074 66.3995 96.2916 66.3995ZM96.2916 6.04137H40.9246C40.1088 6.04137 39.3265 6.35932 38.7496 6.92529C38.1728 7.49126 37.8487 8.25887 37.8487 9.05927V15.0951C37.8487 15.8955 38.1728 16.6631 38.7496 17.2291C39.3265 17.795 40.1088 18.113 40.9246 18.113H96.2916C97.1074 18.113 97.8897 17.795 98.4666 17.2291C99.0434 16.6631 99.3675 15.8955 99.3675 15.0951V9.05927C99.3675 8.25887 99.0434 7.49126 98.4666 6.92529C97.8897 6.35932 97.1074 6.04137 96.2916 6.04137ZM96.2916 36.2204H40.9246C40.1088 36.2204 39.3265 36.5384 38.7496 37.1043C38.1728 37.6703 37.8487 38.4379 37.8487 39.2383V45.2741C37.8487 46.0745 38.1728 46.8421 38.7496 47.4081C39.3265 47.9741 40.1088 48.292 40.9246 48.292H96.2916C97.1074 48.292 97.8897 47.9741 98.4666 47.4081C99.0434 46.8421 99.3675 46.0745 99.3675 45.2741V39.2383C99.3675 38.4379 99.0434 37.6703 98.4666 37.1043C97.8897 36.5384 97.1074 36.2204 96.2916 36.2204Z" fill="#FF9900"/>
</svg>
