<svg width="69" height="67" viewBox="0 0 69 67" fill="none" xmlns="http://www.w3.org/2000/svg">
<path d="M34.5 0C15.4415 0 0 14.994 0 33.5C0 52.0061 15.4415 67 34.5 67C53.5585 67 69 52.0061 69 33.5C69 14.994 53.5585 0 34.5 0ZM34.5 12.9677C41.2609 12.9677 46.7419 18.2899 46.7419 24.8548C46.7419 31.4198 41.2609 36.7419 34.5 36.7419C27.7391 36.7419 22.2581 31.4198 22.2581 24.8548C22.2581 18.2899 27.7391 12.9677 34.5 12.9677ZM34.5 59.4355C26.3341 59.4355 19.0167 55.8423 14.12 50.223C16.7353 45.4411 21.8546 42.1452 27.8226 42.1452C28.1565 42.1452 28.4903 42.1992 28.8103 42.2938C30.6188 42.8611 32.5107 43.2258 34.5 43.2258C36.4893 43.2258 38.3952 42.8611 40.1897 42.2938C40.5097 42.1992 40.8435 42.1452 41.1774 42.1452C47.1454 42.1452 52.2647 45.4411 54.88 50.223C49.9833 55.8423 42.6659 59.4355 34.5 59.4355Z" fill="#6C6C6C"/>
</svg>
