<svg width="99" height="95" viewBox="0 0 99 95" fill="none" xmlns="http://www.w3.org/2000/svg">
<path d="M43.3001 24.4829L30.01 3.23426C29.4636 2.36016 28.6905 1.63673 27.766 1.13446C26.8415 0.632179 25.7972 0.368177 24.7348 0.368164H3.36658C0.876985 0.368164 -0.580245 3.05536 0.846225 5.0122L22.2375 34.3298C27.9511 29.208 35.218 25.6927 43.3001 24.4829ZM95.6334 0.368164H74.2652C72.1044 0.368164 70.1012 1.45632 68.99 3.23426L55.7 24.4829C63.782 25.6927 71.0489 29.208 76.7625 34.3279L98.1538 5.0122C99.5803 3.05536 98.123 0.368164 95.6334 0.368164ZM49.5 29.8775C30.8136 29.8775 15.6646 44.4109 15.6646 62.3379C15.6646 80.2648 30.8136 94.7982 49.5 94.7982C68.1864 94.7982 83.3354 80.2648 83.3354 62.3379C83.3354 44.4109 68.1864 29.8775 49.5 29.8775ZM67.2867 58.8816L59.9947 65.6982L61.7192 75.3294C62.0268 77.0557 60.1312 78.3744 58.5183 77.5592L49.5 73.0129L40.4836 77.5592C38.8688 78.3799 36.9751 77.0538 37.2827 75.3294L39.0072 65.6982L31.7153 58.8816C30.4041 57.6569 31.1289 55.5193 32.936 55.2685L43.0155 53.8594L47.5199 45.0952C47.9255 44.3058 48.7099 43.9166 49.4962 43.9166C50.2863 43.9166 51.0764 44.3113 51.4821 45.0952L55.9864 53.8594L66.0659 55.2685C67.873 55.5193 68.5978 57.6569 67.2867 58.8816Z" fill="#FF9900"/>
</svg>
