<svg width="141" height="95" viewBox="0 0 141 95" fill="none" xmlns="http://www.w3.org/2000/svg">
<path d="M95.45 0.368164H76.7647C75.0245 0.368164 73.3496 1.10563 72.0662 2.43307L50.6836 24.5571C50.6619 24.5817 50.6401 24.6308 50.6184 24.6554C47.0075 28.4902 47.0727 34.6112 50.1616 38.4215C52.9241 41.8384 58.732 42.7479 62.3646 39.0852C62.3864 39.0606 62.4299 39.0606 62.4516 39.036L79.8318 21.0418C81.2457 19.5915 83.4644 19.6898 84.7478 21.2876C86.0529 22.8855 85.9442 25.3683 84.5303 26.8432L78.8529 32.7184L110.524 61.7746C111.155 62.3645 111.721 63.0037 112.243 63.6674V16.1008L100.366 2.67889C99.0826 1.20396 97.2989 0.368164 95.45 0.368164ZM119.225 16.15V71.1896C119.225 75.5406 122.336 79.0559 126.186 79.0559H140.108V16.15H119.225ZM129.666 71.1896C127.752 71.1896 126.186 69.4196 126.186 67.2564C126.186 65.0932 127.752 63.3233 129.666 63.3233C131.581 63.3233 133.147 65.0932 133.147 67.2564C133.147 69.4196 131.581 71.1896 129.666 71.1896ZM0.892517 79.0313H14.814C18.6642 79.0313 21.7748 75.516 21.7748 71.165V16.15H0.892517V79.0313ZM11.3336 63.3233C13.2478 63.3233 14.814 65.0932 14.814 67.2564C14.814 69.4196 13.2478 71.1896 11.3336 71.1896C9.41943 71.1896 7.85327 69.4196 7.85327 67.2564C7.85327 65.0686 9.41943 63.3233 11.3336 63.3233ZM106.152 67.8956L73.6759 38.1019L67.1502 44.862C60.6897 51.5238 50.7924 50.8846 45.028 43.7804C39.1766 36.5532 39.6334 25.3683 45.9851 18.7803L63.7785 0.368164H45.5501C43.7011 0.368164 41.9392 1.20396 40.634 2.67889L28.7355 16.1008V71.1404H32.7162L52.4021 91.2732C58.3622 96.7551 67.1284 95.7226 71.9792 88.9871L72.0227 88.9379L75.9163 92.7482C79.375 95.9439 84.4868 95.3293 87.2928 91.4207L94.1231 81.932L95.2977 83.0136C98.2778 85.7423 102.672 85.2506 105.086 81.8583L107.153 78.9821C109.589 75.5898 109.132 70.6488 106.152 67.8956Z" fill="#FF9900"/>
</svg>
