<svg width="99" height="95" viewBox="0 0 99 95" fill="none" xmlns="http://www.w3.org/2000/svg">
<path d="M88.1689 0.106873H10.8311C5.00876 0.106873 0.285004 4.63867 0.285004 10.2244V84.4194C0.285004 90.0051 5.00876 94.5369 10.8311 94.5369H88.1689C93.9912 94.5369 98.715 90.0051 98.715 84.4194V10.2244C98.715 4.63867 93.9912 0.106873 88.1689 0.106873ZM35.4386 70.9294C35.4386 72.7927 33.8655 74.3019 31.9232 74.3019H24.8925C22.9503 74.3019 21.3771 72.7927 21.3771 70.9294V43.9494C21.3771 42.0861 22.9503 40.5769 24.8925 40.5769H31.9232C33.8655 40.5769 35.4386 42.0861 35.4386 43.9494V70.9294ZM56.5307 70.9294C56.5307 72.7927 54.9576 74.3019 53.0154 74.3019H45.9846C44.0424 74.3019 42.4693 72.7927 42.4693 70.9294V23.7144C42.4693 21.8511 44.0424 20.3419 45.9846 20.3419H53.0154C54.9576 20.3419 56.5307 21.8511 56.5307 23.7144V70.9294ZM77.6229 70.9294C77.6229 72.7927 76.0497 74.3019 74.1075 74.3019H67.0768C65.1346 74.3019 63.5614 72.7927 63.5614 70.9294V57.4394C63.5614 55.5761 65.1346 54.0669 67.0768 54.0669H74.1075C76.0497 54.0669 77.6229 55.5761 77.6229 57.4394V70.9294Z" fill="#FF9900"/>
</svg>
