<svg width="75" height="78" viewBox="0 0 75 78" fill="none" xmlns="http://www.w3.org/2000/svg">
<path d="M74.042 48.1537L67.3132 44.3026C67.9924 40.6708 67.9924 36.945 67.3132 33.3131L74.042 29.4621C74.816 29.0238 75.1635 28.1158 74.9108 27.2704C73.1575 21.6974 70.1722 16.6566 66.2707 12.4612C65.6705 11.8194 64.6911 11.6628 63.933 12.1011L57.2041 15.9522C54.3767 13.5414 51.1229 11.6785 47.6005 10.4574V2.77101C47.6005 1.89435 46.9845 1.12728 46.1157 0.939422C40.3188 -0.344254 34.3797 -0.281636 28.8671 0.939422C27.9984 1.12728 27.3823 1.89435 27.3823 2.77101V10.4731C23.8758 11.7098 20.6219 13.5727 17.7787 15.9678L11.0657 12.1168C10.2917 11.6785 9.32817 11.8194 8.72794 12.4769C4.82647 16.6566 1.84113 21.6974 0.0878415 27.2861C-0.180681 28.1314 0.182614 29.0394 0.95659 29.4777L7.68544 33.3288C7.00624 36.9606 7.00624 40.6864 7.68544 44.3183L0.95659 48.1693C0.182614 48.6076 -0.164885 49.5156 0.0878415 50.361C1.84113 55.934 4.82647 60.9748 8.72794 65.1702C9.32817 65.812 10.3075 65.9686 11.0657 65.5303L17.7945 61.6792C20.6219 64.09 23.8758 65.9529 27.3981 67.174V74.876C27.3981 75.7527 28.0142 76.5198 28.8829 76.7076C34.6798 77.9913 40.6189 77.9287 46.1315 76.7076C47.0003 76.5198 47.6163 75.7527 47.6163 74.876V67.174C51.1229 65.9373 54.3767 64.0744 57.2199 61.6792L63.9488 65.5303C64.7227 65.9686 65.6863 65.8277 66.2865 65.1702C70.188 60.9904 73.1733 55.9496 74.9266 50.361C75.1635 49.5 74.816 48.592 74.042 48.1537ZM37.4914 51.3315C30.5256 51.3315 24.8551 45.7115 24.8551 38.8079C24.8551 31.9042 30.5256 26.2842 37.4914 26.2842C44.4572 26.2842 50.1278 31.9042 50.1278 38.8079C50.1278 45.7115 44.4572 51.3315 37.4914 51.3315Z" fill="#FF9900"/>
</svg>
