<svg width="99" height="95" viewBox="0 0 99 95" fill="none" xmlns="http://www.w3.org/2000/svg">
<path d="M49.5 0.122925C22.3132 0.122925 0.285919 21.255 0.285919 47.337C0.285919 73.419 22.3132 94.5511 49.5 94.5511C76.6868 94.5511 98.7141 73.419 98.7141 47.337C98.7141 21.255 76.6868 0.122925 49.5 0.122925ZM67.8541 59.7117L63.8852 64.4711C63.6247 64.7835 63.3027 65.0437 62.9374 65.2367C62.5722 65.4297 62.1709 65.5517 61.7565 65.5959C61.342 65.6401 60.9226 65.6056 60.5221 65.4942C60.1215 65.3829 59.7478 65.197 59.4222 64.9471L46.1265 55.4814C45.1975 54.7679 44.4476 53.863 43.9323 52.8339C43.4171 51.8047 43.1496 50.6776 43.1498 49.5359V19.9224C43.1498 19.1145 43.4843 18.3397 44.0798 17.7685C44.6752 17.1972 45.4828 16.8763 46.3249 16.8763H52.6751C53.5172 16.8763 54.3248 17.1972 54.9202 17.7685C55.5157 18.3397 55.8502 19.1145 55.8502 19.9224V47.337L67.3599 55.4281C67.6857 55.6782 67.9569 55.9873 68.1581 56.338C68.3593 56.6886 68.4864 57.0738 68.5323 57.4717C68.5782 57.8695 68.5419 58.2721 68.4256 58.6564C68.3092 59.0408 68.115 59.3993 67.8541 59.7117Z" fill="#FF9900"/>
</svg>
